<svg width="166" height="41" viewBox="0 0 166 41" fill="none" xmlns="http://www.w3.org/2000/svg">
<path d="M144.366 40.2659V34.3361H151.708V6.66394H144.366V0.734187H165.826V6.66394H158.485V34.3361H165.826V40.2659H144.366Z" fill="black"/>
<path d="M107.167 40.2659V0.734187H124.674C127.197 0.734187 129.493 1.29893 131.564 2.4284C133.672 3.52023 135.348 5.06385 136.59 7.05926C137.833 9.05467 138.454 11.3701 138.454 14.0055C138.454 16.641 137.795 18.9752 136.477 21.0083C135.197 23.0037 133.484 24.5473 131.338 25.6391L135.235 33.0372C135.461 33.4514 135.724 33.7714 136.025 33.9973C136.327 34.1855 136.722 34.2796 137.211 34.2796H140.543V40.2659H136.195C134.651 40.2659 133.277 39.8894 132.072 39.1364C130.867 38.3458 129.907 37.3104 129.192 36.0303L124.561 27.1639C124.185 27.2016 123.789 27.2204 123.375 27.2204C122.999 27.2204 122.622 27.2204 122.246 27.2204H113.888V40.2659H107.167ZM113.888 21.2907H123.827C125.258 21.2907 126.575 21.0083 127.78 20.4436C128.985 19.8788 129.926 19.0505 130.604 17.9587C131.319 16.8292 131.677 15.5115 131.677 14.0055C131.677 12.4619 131.319 11.1442 130.604 10.0524C129.889 8.96054 128.947 8.13226 127.78 7.56752C126.613 6.96513 125.314 6.66394 123.883 6.66394H113.888V21.2907Z" fill="black"/>
<path d="M80.357 41C77.2321 41 74.3896 40.4729 71.8294 39.4187C69.3069 38.3269 67.1421 36.8398 65.3349 34.9573C63.5654 33.0748 62.1912 30.8912 61.2123 28.4063C60.2335 25.9215 59.744 23.2672 59.744 20.4435C59.744 17.6198 60.2335 14.9844 61.2123 12.5372C62.1912 10.0523 63.5654 7.86869 65.3349 5.98623C67.1421 4.10377 69.3069 2.63545 71.8294 1.58127C74.3896 0.527089 77.2321 0 80.357 0C83.5195 0 86.362 0.527089 88.8845 1.58127C91.407 2.63545 93.5718 4.10377 95.379 5.98623C97.1862 7.86869 98.5792 10.0523 99.5581 12.5372C100.537 14.9844 101.026 17.6198 101.026 20.4435C101.026 23.2672 100.537 25.9215 99.5581 28.4063C98.5792 30.8912 97.1862 33.0748 95.379 34.9573C93.5718 36.8398 91.407 38.3269 88.8845 39.4187C86.362 40.4729 83.5195 41 80.357 41ZM80.357 35.0138C82.3524 35.0138 84.1972 34.6561 85.8914 33.9408C87.5856 33.2254 89.0539 32.2089 90.2964 30.8912C91.5764 29.5358 92.5553 27.9734 93.233 26.2039C93.9107 24.4343 94.2495 22.5142 94.2495 20.4435C94.2495 18.3728 93.9107 16.4527 93.233 14.6832C92.5553 12.9137 91.5764 11.3889 90.2964 10.1088C89.0539 8.79109 87.5856 7.77457 85.8914 7.05923C84.1972 6.30625 82.3524 5.92975 80.357 5.92975C78.3616 5.92975 76.5167 6.30625 74.8225 7.05923C73.166 7.77457 71.6976 8.79109 70.4176 10.1088C69.1751 11.3889 68.1963 12.9137 67.4809 14.6832C66.8032 16.4527 66.4644 18.3728 66.4644 20.4435C66.4644 22.5519 66.8032 24.4908 67.4809 26.2603C68.1963 27.9922 69.1751 29.5358 70.4176 30.8912C71.6976 32.2089 73.166 33.2254 74.8225 33.9408C76.5167 34.6561 78.3616 35.0138 80.357 35.0138Z" fill="black"/>
<path d="M26.9945 40.887C24.8861 40.887 22.966 40.4164 21.2342 39.4752C19.5399 38.4963 18.2034 37.1597 17.2245 35.4655C16.2833 33.7337 15.8127 31.7571 15.8127 29.5358V10.617C15.8127 9.75111 15.6056 8.97931 15.1915 8.30162C14.7773 7.58628 14.2126 7.02155 13.4972 6.60741C12.8196 6.19326 12.0666 5.98619 11.2383 5.98619C10.41 5.98619 9.65702 6.19326 8.97934 6.60741C8.30165 7.02155 7.75574 7.58628 7.3416 8.30162C6.92746 8.97931 6.72039 9.75111 6.72039 10.617V40.2658H0V11.4642C0 9.31815 0.470617 7.39804 1.41185 5.70382C2.35308 3.97196 3.6708 2.59776 5.36502 1.58123C7.05923 0.564707 9.01699 0.0564432 11.2383 0.0564432C13.4972 0.0564432 15.4738 0.564707 17.168 1.58123C18.8623 2.59776 20.18 3.97196 21.1212 5.70382C22.0624 7.39804 22.5331 9.31815 22.5331 11.4642V30.3829C22.5331 31.2112 22.7401 31.983 23.1543 32.6983C23.5684 33.376 24.1143 33.9219 24.792 34.3361C25.4697 34.7502 26.2039 34.9573 26.9945 34.9573C27.8228 34.9573 28.5758 34.7502 29.2534 34.3361C29.9311 33.9219 30.477 33.376 30.8912 32.6983C31.3053 31.983 31.5124 31.2112 31.5124 30.3829V11.4642C31.5124 9.31815 31.983 7.39804 32.9242 5.70382C33.8655 3.97196 35.1832 2.59776 36.8774 1.58123C38.6093 0.564707 40.5859 0.0564432 42.8072 0.0564432C45.0661 0.0564432 47.0239 0.564707 48.6804 1.58123C50.3747 2.59776 51.6924 3.97196 52.6336 5.70382C53.5748 7.39804 54.0455 9.31815 54.0455 11.4642V40.2658H47.2686V10.617C47.2686 9.75111 47.0615 8.97931 46.6474 8.30162C46.2709 7.58628 45.7438 7.02155 45.0661 6.60741C44.3884 6.19326 43.6354 5.98619 42.8072 5.98619C41.9789 5.98619 41.2071 6.19326 40.4917 6.60741C39.814 7.02155 39.2681 7.58628 38.854 8.30162C38.4398 8.97931 38.2328 9.75111 38.2328 10.617V29.5358C38.2328 31.7571 37.7433 33.7337 36.7645 35.4655C35.7856 37.1597 34.449 38.4963 32.7548 39.4752C31.0982 40.4164 29.1781 40.887 26.9945 40.887Z" fill="black"/>
</svg>
